<mxfile host="Electron" agent="Mozilla/5.0 (X11; Linux x86_64) AppleWebKit/537.36 (KHTML, like Gecko) draw.io/24.7.17 Chrome/128.0.6613.36 Electron/32.0.1 Safari/537.36" version="24.7.17">
  <diagram name="Page-1" id="NP-bvgKCD1iRng7ugvCI">
    <mxGraphModel dx="3434" dy="1524" grid="1" gridSize="10" guides="1" tooltips="1" connect="1" arrows="1" fold="1" page="1" pageScale="1" pageWidth="827" pageHeight="1169" math="0" shadow="0">
      <root>
        <mxCell id="0" />
        <mxCell id="1" parent="0" />
        <mxCell id="EUwMQFjHViPAQiLTIeCK-2" value="" style="rounded=0;whiteSpace=wrap;html=1;" vertex="1" parent="1">
          <mxGeometry x="-600" y="100" width="1200" height="900" as="geometry" />
        </mxCell>
        <mxCell id="EUwMQFjHViPAQiLTIeCK-4" value="&lt;font style=&quot;font-size: 16px;&quot;&gt;Menu&lt;/font&gt;" style="rounded=0;whiteSpace=wrap;html=1;strokeWidth=4;" vertex="1" parent="1">
          <mxGeometry x="-580" y="130" width="120" height="840" as="geometry" />
        </mxCell>
        <mxCell id="EUwMQFjHViPAQiLTIeCK-5" value="&lt;font style=&quot;font-size: 16px;&quot;&gt;Interface&lt;/font&gt;" style="rounded=0;whiteSpace=wrap;html=1;strokeWidth=4;" vertex="1" parent="1">
          <mxGeometry x="-430" y="130" width="410" height="160" as="geometry" />
        </mxCell>
        <mxCell id="EUwMQFjHViPAQiLTIeCK-6" value="&lt;font style=&quot;font-size: 16px;&quot;&gt;Resume&lt;/font&gt;" style="rounded=0;whiteSpace=wrap;html=1;strokeWidth=4;" vertex="1" parent="1">
          <mxGeometry x="10" y="130" width="570" height="160" as="geometry" />
        </mxCell>
        <mxCell id="EUwMQFjHViPAQiLTIeCK-7" value="&lt;font style=&quot;font-size: 16px;&quot;&gt;Groups User&lt;/font&gt;" style="rounded=0;whiteSpace=wrap;html=1;strokeWidth=4;" vertex="1" parent="1">
          <mxGeometry x="-430" y="320" width="650" height="650" as="geometry" />
        </mxCell>
        <mxCell id="EUwMQFjHViPAQiLTIeCK-8" value="&lt;font style=&quot;font-size: 16px;&quot;&gt;Network Traffics&lt;/font&gt;" style="rounded=0;whiteSpace=wrap;html=1;strokeWidth=4;" vertex="1" parent="1">
          <mxGeometry x="250" y="320" width="330" height="650" as="geometry" />
        </mxCell>
      </root>
    </mxGraphModel>
  </diagram>
</mxfile>
